<svg width="24" height="24" viewBox="0 0 21 21" fill="none" xmlns="http://www.w3.org/2000/svg">
  <path
    d="M19.5 8.75875C19.5 14.3219 15.6968 19.0728 10.5 20C5.3032 19.0728 1.5 14.3219 1.5 8.75875V2.26667C1.5 1.56747 2.0376 1 2.7 1H18.3C18.9624 1 19.5 1.56747 19.5 2.26667V8.75875Z"
    stroke="currentColor"
    stroke-width="1.5"
    stroke-miterlimit="10"
  />
  <mask id="path-2-inside-1" fill="white">
    <rect x="6.5" y="6" width="8" height="8" rx="0.5" />
  </mask>
  <rect
    x="6.5"
    y="6"
    width="8"
    height="8"
    rx="0.5"
    stroke="currentColor"
    stroke-width="3"
    mask="url(#path-2-inside-1)"
  />
  <rect x="14" y="8" width="2" height="1" rx="0.25" fill="currentColor" />
  <rect x="14" y="11" width="2" height="1" rx="0.25" fill="currentColor" />
  <rect x="5" y="8" width="2.5" height="1" rx="0.25" fill="currentColor" />
  <rect x="5" y="11" width="2.5" height="1" rx="0.25" fill="currentColor" />
  <rect
    x="12.5"
    y="4.5"
    width="2"
    height="1"
    rx="0.25"
    transform="rotate(90 12.5 4.5)"
    fill="currentColor"
  />
  <rect
    x="9.5"
    y="4.5"
    width="2"
    height="1"
    rx="0.25"
    transform="rotate(90 9.5 4.5)"
    fill="currentColor"
  />
  <rect
    x="12.5"
    y="13.5"
    width="2"
    height="1"
    rx="0.25"
    transform="rotate(90 12.5 13.5)"
    fill="currentColor"
  />
  <rect
    x="9.5"
    y="13.5"
    width="2"
    height="1"
    rx="0.25"
    transform="rotate(90 9.5 13.5)"
    fill="currentColor"
  />
</svg>
